<?xml version="1.0" encoding="utf-8"?>
<!-- Generator: Adobe Illustrator 22.0.1, SVG Export Plug-In . SVG Version: 6.00 Build 0)  -->
<svg version="1.1" id="Lager_1" xmlns="http://www.w3.org/2000/svg" xmlns:xlink="http://www.w3.org/1999/xlink" x="0px" y="0px"
	 viewBox="0 0 128 128" style="enable-background:new 0 0 128 128;" xml:space="preserve">
<style type="text/css">
	.st0{fill:#007BCD;}
	.st1{fill:#FFFFFF;stroke:#FFFFFF;stroke-miterlimit:10;}
	.st2{display:none;}
	.st3{display:inline;}
	.st4{fill:#F0DB4F;}
	.st5{fill:#323330;}
</style>
<circle class="st0" cx="64" cy="64" r="50"/>
<g>
	<g>
		<path class="st1" d="M46.1,53.1H35.3V48h27.5v5.1H52.1V82h-6V53.1z"/>
		<path class="st1" d="M66.4,77.6l3.5-4.2c2.6,2.3,5.9,3.9,9.5,3.9c4,0,6-1.7,6-4.1c0-3-2.3-3.8-5.6-5.2l-4.7-2
			c-3.6-1.4-7.3-4-7.3-9c0-5.4,4.9-9.6,11.8-9.6c4.2,0,8.1,1.6,10.9,4.3l-3.1,3.8c-2.3-1.8-4.7-2.9-8.1-2.9c-3.2,0-5.4,1.5-5.4,4
			c0,2.6,2.7,3.6,5.8,4.8l4.5,1.9c4.3,1.7,7.4,4.2,7.4,9.2C91.6,78,87,82.6,79,82.6C74.2,82.6,69.7,80.8,66.4,77.6z"/>
	</g>
</g>
<g class="st2">
	<g class="st3">
		<g>
			<circle class="st4" cx="64" cy="64" r="50"/>
		</g>
	</g>
	<g id="Layer_1_1_" class="st3">
		<g>
			<g>
				<path class="st5" d="M48.4,44.6h8.7v24.5c0,11-5.3,14.9-13.7,14.9c-2.1,0-4.7-0.3-6.4-0.9l1-7.1c1.2,0.4,2.8,0.7,4.5,0.7
					c3.7,0,6-1.7,6-7.6L48.4,44.6L48.4,44.6z"/>
				<path class="st5" d="M64.8,74.4c2.3,1.2,6,2.4,9.7,2.4c4,0,6.1-1.7,6.1-4.3c0-2.4-1.8-3.8-6.5-5.4c-6.4-2.3-10.7-5.9-10.7-11.6
					C63.4,49,69,44,78.1,44c4.4,0,7.6,0.9,9.9,2l-2,7c-1.5-0.7-4.3-1.8-8-1.8c-3.8,0-5.6,1.8-5.6,3.7c0,2.5,2.1,3.6,7.2,5.5
					c6.8,2.5,10,6.1,10,11.6c0,6.5-4.9,12-15.6,12c-4.4,0-8.8-1.2-11-2.4L64.8,74.4z"/>
			</g>
		</g>
	</g>
</g>
</svg>
