<svg xmlns="http://www.w3.org/2000/svg" viewBox="0 0 260 258.35"><defs><style>.cls-1{fill:none;}.cls-2{fill:#3fa9f5;}</style></defs><title>Asset 30</title><g id="Layer_2" data-name="Layer 2"><g id="Layer_1-2" data-name="Layer 1"><rect class="cls-1" x="0.85" width="258.35" height="258.35"/><path class="cls-2" d="M257.55,87.83,132.21,5.27a5.81,5.81,0,0,0-6.42,0L2.41,87.85a5.35,5.35,0,0,0,3.23,9.8H37.57V243a2.92,2.92,0,0,0,2.84,3H108.1V190a2.92,2.92,0,0,1,2.84-3h37.55a2.92,2.92,0,0,1,2.84,3v56h68.26a2.92,2.92,0,0,0,2.84-3V113.87l-67.69-15.8,67.69-.3v-.12h31.93A5.35,5.35,0,0,0,257.55,87.83Z"/></g></g></svg>