<svg xmlns="http://www.w3.org/2000/svg" viewBox="0 0 258.35 258.35"><defs><style>.cls-1{fill:none;}.cls-2{fill:#b3b3b3;}</style></defs><title>Asset 26</title><g id="Layer_2" data-name="Layer 2"><g id="Layer_1-2" data-name="Layer 1"><rect class="cls-1" width="258.35" height="258.35"/><path class="cls-2" d="M238.26,243.09c0,1.27,0,2.33,0,3.06H19.66c0-.67,0-1.75,0-3.06-.42-40-.63-60,1.35-65.67,5.49-15.73,27.54-23.39,51.2-27.12,13.42,7.43,31.23,12.24,51,13-32.59-4.71-61-44-61-85.26,0-44,32.27-73.49,67.49-73.49s66.13,30.2,66.13,74.17c0,41-26.88,79.49-59.07,84.5,19.45-1,36.94-6,50-13.53,22.86,3.31,43.72,10.4,49.52,25.65C238.89,182.33,238.68,202.58,238.26,243.09Z"/></g></g></svg>