<svg xmlns="http://www.w3.org/2000/svg" viewBox="0 0 258.35 258.35"><defs><style>.cls-1{fill:none;}.cls-2{fill:#3fa9f5;}</style></defs><title>Asset 32</title><g id="Layer_2" data-name="Layer 2"><g id="Layer_1-2" data-name="Layer 1"><rect class="cls-1" width="258.35" height="258.35"/><path class="cls-2" d="M233.17,104.59l-16.42-2.79a92.5,92.5,0,0,0-6.6-15.93l9.68-13.55a14.41,14.41,0,0,0-1.57-18.62L203.7,39.13a14.39,14.39,0,0,0-10.22-4.25,14.22,14.22,0,0,0-8.36,2.69l-13.59,9.68A91.44,91.44,0,0,0,155,40.45l-2.74-16.23A14.43,14.43,0,0,0,138,12.15H117.42a14.43,14.43,0,0,0-14.27,12.07l-2.84,16.62a91.35,91.35,0,0,0-15.89,6.7L71,37.86a14.42,14.42,0,0,0-18.62,1.57L37.74,54a14.48,14.48,0,0,0-1.56,18.63L46,86.35a91.17,91.17,0,0,0-6.5,16l-16.23,2.74a14.43,14.43,0,0,0-12.07,14.27v20.58A14.43,14.43,0,0,0,23.22,154.2L39.84,157a90.18,90.18,0,0,0,6.7,15.88l-9.63,13.4a14.4,14.4,0,0,0,1.57,18.62L53,219.51a14.38,14.38,0,0,0,18.58,1.56l13.73-9.77a92.42,92.42,0,0,0,15.45,6.35l2.74,16.43a14.43,14.43,0,0,0,14.27,12.07h20.63a14.43,14.43,0,0,0,14.27-12.07l2.79-16.43a92.5,92.5,0,0,0,15.93-6.6L185,220.73a14.45,14.45,0,0,0,18.63-1.56l14.57-14.57A14.47,14.47,0,0,0,219.73,186l-9.68-13.59a91.92,91.92,0,0,0,6.6-15.94l16.42-2.74a14.44,14.44,0,0,0,12.08-14.27V118.86A14.26,14.26,0,0,0,233.17,104.59Zm-104.5,85.89A56.69,56.69,0,0,1,72,133.79,57.53,57.53,0,0,1,73,123c0,.17,0,.34,0,.51a55.67,55.67,0,1,0,111.33,0c0-.17,0-.34,0-.51a56.7,56.7,0,0,1-55.65,67.51Z"/></g></g></svg>