<svg xmlns="http://www.w3.org/2000/svg" viewBox="0 0 317 200"><defs><style>.cls-1{fill:none;}.cls-2{fill:#b3b3b3;}.cls-3{fill:#3fa9f5;}</style></defs><title>Asset 12</title><g id="Layer_2" data-name="Layer 2"><g id="Layer_1-2" data-name="Layer 1"><rect class="cls-1" width="317" height="200"/><path class="cls-2" d="M75.06,31.12,18,88.37,9.73,96.7a4.59,4.59,0,0,0,0,6.37l57,57,8.3,8.29c4.1,4.1,10.47-2.26,6.36-6.36l-57-57L16.1,96.7v6.37l57-57.26,8.3-8.33c4.09-4.11-2.27-10.47-6.36-6.36Z"/><path class="cls-2" d="M236.61,38.15l57,57.26,8.3,8.33V97.38l-57,57-8.3,8.3c-4.1,4.1,2.26,10.47,6.37,6.37l57-57,8.3-8.3a4.56,4.56,0,0,0,0-6.36l-57-57.26L243,31.79c-4.1-4.11-10.46,2.25-6.37,6.36Z"/><path class="cls-3" d="M144,60v80.84l7.68-3.18L111.46,97.71c-4.11-4.09-10.48,2.27-6.36,6.36l40.22,40a4.55,4.55,0,0,0,7.68-3.18V60c0-5.79-9-5.8-9,0Z"/><path class="cls-3" d="M172,141.07V59.92l-7.68,3.18,41,40.76V97.49l-41,40.4c-4.14,4.07,2.23,10.43,6.36,6.36l41-40.39a4.57,4.57,0,0,0,0-6.37l-41-40.75A4.55,4.55,0,0,0,163,59.92v81.15C163,146.86,172,146.87,172,141.07Z"/></g></g></svg>